# xmcd
#
# Track frame offsets: 
#        150
#        26003
#        50396
#        77606
#        93923
#        110385
#        127006
#        150874
#        184752
#        208141
#
# Disc length: 3129 seconds
#
# Revision: 0
# Processed by: cddbd v1.5.2PL0 Copyright (c) Steve Scherf et al.
# Submitted via: ExactAudioCopy v1.0b3
#
DISCID=770c370a
DTITLE=Jimmy Rushing - Vanguard Visionaries
DYEAR=2007
DGENRE=Blues
TTITLE0=Dinah
TTITLE1=Pennies From Heaven
TTITLE2=Oh Love
TTITLE3=Goin' To Chicago
TTITLE4=Sent For You Yesterday
TTITLE5=Boogie Woogie
TTITLE6=Good Morning Blues
TTITLE7=Evenin'
TTITLE8=See See Rider
TTITLE9=Don't Cry Baby
EXTD=
EXTT0=
EXTT1=
EXTT2=
EXTT3=
EXTT4=
EXTT5=
EXTT6=
EXTT7=
EXTT8=
EXTT9=
PLAYORDER=
